<svg xmlns="http://www.w3.org/2000/svg" xmlns:xlink="http://www.w3.org/1999/xlink" width="500" zoomAndPan="magnify" viewBox="0 0 375 225" height="300" preserveAspectRatio="xMidYMid meet" version="1.0"><defs><g/><clipPath id="04f3f218f5"><path d="M 0 0.878906 L 375 0.878906 L 375 219.519531 L 0 219.519531 Z M 0 0.878906 " clip-rule="nonzero"/></clipPath><clipPath id="673e6f8bd7"><path d="M 0 211 L 375 211 L 375 219 L 0 219 Z M 0 211 " clip-rule="nonzero"/></clipPath><clipPath id="2b5cff56d4"><rect x="0" width="225" y="0" height="176"/></clipPath><clipPath id="f724629746"><rect x="0" width="102" y="0" height="25"/></clipPath><clipPath id="c8fecd0db7"><rect x="0" width="41" y="0" height="31"/></clipPath><clipPath id="6d66469fa0"><rect x="0" width="375" y="0" height="220"/></clipPath></defs><g transform="matrix(1, 0, 0, 1, 0, 2)"><g clip-path="url(#6d66469fa0)"><g clip-path="url(#04f3f218f5)"><path stroke-linecap="butt" transform="matrix(0.662995, -0.376704, 0.376704, 0.662995, 2.031934, 211.59439)" fill="none" stroke-linejoin="miter" d="M -0.000783645 4.499943 L 554.370908 4.503163 " stroke="#004494" stroke-width="9" stroke-opacity="1" stroke-miterlimit="4"/></g><g clip-path="url(#673e6f8bd7)"><path stroke-linecap="butt" transform="matrix(0.762541, 0.000000000000000179, -0.000000000000000179, 0.762541, 2.032476, 211.374298)" fill="none" stroke-linejoin="miter" d="M -0.00160792 4.498631 L 484.255308 4.498631 " stroke="#004494" stroke-width="9" stroke-opacity="1" stroke-miterlimit="4"/></g><g transform="matrix(1, 0, 0, 1, 120, 38)"><g clip-path="url(#2b5cff56d4)"><g fill="#004494" fill-opacity="1"><g transform="translate(32.921622, 159.699805)"><g><path d="M 18.6875 -33.859375 L 2.296875 -24.5 L 9.234375 -5.265625 L 0.609375 -0.34375 L -16.375 -47.359375 L 10.703125 -62.828125 L 13.53125 -54.96875 L -4.921875 -44.4375 L -0.546875 -32.296875 L 15.90625 -41.6875 Z M 18.6875 -33.859375 "/></g></g></g><g fill="#004494" fill-opacity="1"><g transform="translate(65.172696, 141.288796)"><g><path d="M 10 -26.46875 L 3.015625 -22.484375 L 9.234375 -5.265625 L 0.609375 -0.34375 L -16.375 -47.359375 L -2.1875 -55.40625 C 2.550781 -58.113281 6.832031 -59.082031 10.65625 -58.3125 C 14.476562 -57.539062 17.382812 -55.082031 19.375 -50.9375 C 22.3125 -44.820312 21.507812 -38.953125 16.96875 -33.328125 L 32.890625 -19.40625 L 33.15625 -18.9375 L 23.984375 -13.703125 Z M 0.171875 -30.328125 L 6.625 -33.921875 C 8.863281 -35.253906 10.382812 -36.9375 11.1875 -38.96875 C 11.988281 -41 11.957031 -43.113281 11.09375 -45.3125 C 10.28125 -47.363281 9.125 -48.675781 7.625 -49.25 C 6.132812 -49.832031 4.410156 -49.613281 2.453125 -48.59375 L -4.921875 -44.4375 Z M 0.171875 -30.328125 "/></g></g></g><g fill="#004494" fill-opacity="1"><g transform="translate(102.710832, 119.859588)"><g><path d="M 18.265625 -35 L 1.875 -25.640625 L 6.421875 -13.046875 L 25.6875 -24.046875 L 28.5 -16.265625 L 0.609375 -0.34375 L -16.375 -47.359375 L 11.4375 -63.234375 L 14.265625 -55.390625 L -4.921875 -44.4375 L -0.90625 -33.21875 L 15.546875 -42.609375 Z M 18.265625 -35 "/></g></g></g><g fill="#004494" fill-opacity="1"><g transform="translate(135.813711, 100.962314)"><g><path d="M 17.625 -25.203125 C 16.707031 -27.773438 14.539062 -28.90625 11.125 -28.59375 L 4.15625 -27.609375 C -4.082031 -26.796875 -9.507812 -29.0625 -12.125 -34.40625 C -13.351562 -36.875 -13.773438 -39.4375 -13.390625 -42.09375 C -13.015625 -44.75 -11.832031 -47.332031 -9.84375 -49.84375 C -7.863281 -52.363281 -5.359375 -54.46875 -2.328125 -56.15625 C 1.847656 -58.425781 5.882812 -59.097656 9.78125 -58.171875 C 13.6875 -57.242188 16.757812 -54.773438 19 -50.765625 L 10.421875 -45.875 C 9.421875 -47.863281 8.132812 -49.125 6.5625 -49.65625 C 5 -50.195312 3.210938 -49.914062 1.203125 -48.8125 C -0.796875 -47.726562 -2.253906 -46.304688 -3.171875 -44.546875 C -4.085938 -42.796875 -4.210938 -41.03125 -3.546875 -39.25 C -2.691406 -36.894531 -0.296875 -36.015625 3.640625 -36.609375 L 8.34375 -37.375 L 11.15625 -37.609375 C 18.5625 -38.046875 23.554688 -35.570312 26.140625 -30.1875 C 27.410156 -27.5625 27.847656 -24.921875 27.453125 -22.265625 C 27.054688 -19.617188 25.898438 -17.097656 23.984375 -14.703125 C 22.066406 -12.316406 19.601562 -10.300781 16.59375 -8.65625 C 13.519531 -6.976562 10.453125 -6.070312 7.390625 -5.9375 C 4.335938 -5.800781 1.5625 -6.488281 -0.9375 -8 C -3.269531 -9.394531 -5.15625 -11.4375 -6.59375 -14.125 L 2.046875 -19 C 4.421875 -14.195312 8.046875 -13.140625 12.921875 -15.828125 C 15.015625 -17.023438 16.472656 -18.46875 17.296875 -20.15625 C 18.128906 -21.84375 18.238281 -23.523438 17.625 -25.203125 Z M 17.625 -25.203125 "/></g></g></g><g fill="#004494" fill-opacity="1"><g transform="translate(171.971336, 80.321192)"><g><path d="M 34.453125 -19.671875 L 25.84375 -14.75 L 18.5625 -34.890625 L 1.953125 -25.421875 L 9.234375 -5.265625 L 0.609375 -0.34375 L -16.375 -47.359375 L -7.765625 -52.265625 L -0.90625 -33.21875 L 15.71875 -42.703125 L 8.828125 -61.75 L 17.421875 -66.65625 Z M 34.453125 -19.671875 "/></g></g></g></g></g><g transform="matrix(1, 0, 0, 1, 216, 183)"><g clip-path="url(#f724629746)"><g fill="#004494" fill-opacity="1"><g transform="translate(1.783452, 18.161409)"><g><path d="M 13.453125 -5.125 C 13.328125 -3.46875 12.710938 -2.160156 11.609375 -1.203125 C 10.515625 -0.253906 9.066406 0.21875 7.265625 0.21875 C 5.285156 0.21875 3.726562 -0.441406 2.59375 -1.765625 C 1.46875 -3.097656 0.90625 -4.925781 0.90625 -7.25 L 0.90625 -8.1875 C 0.90625 -9.664062 1.164062 -10.96875 1.6875 -12.09375 C 2.207031 -13.226562 2.953125 -14.09375 3.921875 -14.6875 C 4.890625 -15.289062 6.015625 -15.59375 7.296875 -15.59375 C 9.078125 -15.59375 10.507812 -15.117188 11.59375 -14.171875 C 12.675781 -13.222656 13.300781 -11.890625 13.46875 -10.171875 L 10.296875 -10.171875 C 10.222656 -11.160156 9.945312 -11.878906 9.46875 -12.328125 C 9 -12.773438 8.273438 -13 7.296875 -13 C 6.242188 -13 5.453125 -12.617188 4.921875 -11.859375 C 4.398438 -11.097656 4.132812 -9.925781 4.125 -8.34375 L 4.125 -7.171875 C 4.125 -5.515625 4.375 -4.300781 4.875 -3.53125 C 5.375 -2.757812 6.171875 -2.375 7.265625 -2.375 C 8.242188 -2.375 8.972656 -2.597656 9.453125 -3.046875 C 9.929688 -3.492188 10.207031 -4.1875 10.28125 -5.125 Z M 13.453125 -5.125 "/></g></g></g><g fill="#004494" fill-opacity="1"><g transform="translate(15.944202, 18.161409)"><g><path d="M 14.015625 -7.34375 C 14.015625 -5.832031 13.742188 -4.503906 13.203125 -3.359375 C 12.671875 -2.210938 11.90625 -1.328125 10.90625 -0.703125 C 9.914062 -0.0859375 8.773438 0.21875 7.484375 0.21875 C 6.203125 0.21875 5.0625 -0.0859375 4.0625 -0.703125 C 3.0625 -1.316406 2.285156 -2.191406 1.734375 -3.328125 C 1.191406 -4.472656 0.914062 -5.785156 0.90625 -7.265625 L 0.90625 -8.015625 C 0.90625 -9.535156 1.175781 -10.867188 1.71875 -12.015625 C 2.269531 -13.171875 3.039062 -14.054688 4.03125 -14.671875 C 5.03125 -15.285156 6.171875 -15.59375 7.453125 -15.59375 C 8.742188 -15.59375 9.882812 -15.285156 10.875 -14.671875 C 11.875 -14.054688 12.644531 -13.171875 13.1875 -12.015625 C 13.738281 -10.867188 14.015625 -9.539062 14.015625 -8.03125 Z M 10.796875 -8.046875 C 10.796875 -9.660156 10.503906 -10.882812 9.921875 -11.71875 C 9.347656 -12.550781 8.523438 -12.96875 7.453125 -12.96875 C 6.390625 -12.96875 5.566406 -12.554688 4.984375 -11.734375 C 4.410156 -10.910156 4.125 -9.695312 4.125 -8.09375 L 4.125 -7.34375 C 4.125 -5.769531 4.410156 -4.550781 4.984375 -3.6875 C 5.566406 -2.820312 6.398438 -2.390625 7.484375 -2.390625 C 8.546875 -2.390625 9.359375 -2.804688 9.921875 -3.640625 C 10.492188 -4.472656 10.785156 -5.691406 10.796875 -7.296875 Z M 10.796875 -8.046875 "/></g></g></g><g fill="#004494" fill-opacity="1"><g transform="translate(30.886963, 18.161409)"><g><path d="M 13.890625 0 L 10.71875 0 L 4.546875 -10.125 L 4.546875 0 L 1.375 0 L 1.375 -15.390625 L 4.546875 -15.390625 L 10.71875 -5.234375 L 10.71875 -15.390625 L 13.890625 -15.390625 Z M 13.890625 0 "/></g></g></g><g fill="#004494" fill-opacity="1"><g transform="translate(46.167892, 18.161409)"><g><path d="M 13.453125 -5.125 C 13.328125 -3.46875 12.710938 -2.160156 11.609375 -1.203125 C 10.515625 -0.253906 9.066406 0.21875 7.265625 0.21875 C 5.285156 0.21875 3.726562 -0.441406 2.59375 -1.765625 C 1.46875 -3.097656 0.90625 -4.925781 0.90625 -7.25 L 0.90625 -8.1875 C 0.90625 -9.664062 1.164062 -10.96875 1.6875 -12.09375 C 2.207031 -13.226562 2.953125 -14.09375 3.921875 -14.6875 C 4.890625 -15.289062 6.015625 -15.59375 7.296875 -15.59375 C 9.078125 -15.59375 10.507812 -15.117188 11.59375 -14.171875 C 12.675781 -13.222656 13.300781 -11.890625 13.46875 -10.171875 L 10.296875 -10.171875 C 10.222656 -11.160156 9.945312 -11.878906 9.46875 -12.328125 C 9 -12.773438 8.273438 -13 7.296875 -13 C 6.242188 -13 5.453125 -12.617188 4.921875 -11.859375 C 4.398438 -11.097656 4.132812 -9.925781 4.125 -8.34375 L 4.125 -7.171875 C 4.125 -5.515625 4.375 -4.300781 4.875 -3.53125 C 5.375 -2.757812 6.171875 -2.375 7.265625 -2.375 C 8.242188 -2.375 8.972656 -2.597656 9.453125 -3.046875 C 9.929688 -3.492188 10.207031 -4.1875 10.28125 -5.125 Z M 13.453125 -5.125 "/></g></g></g><g fill="#004494" fill-opacity="1"><g transform="translate(60.328641, 18.161409)"><g><path d="M 10.625 -6.671875 L 4.546875 -6.671875 L 4.546875 -2.546875 L 11.6875 -2.546875 L 11.6875 0 L 1.375 0 L 1.375 -15.390625 L 11.671875 -15.390625 L 11.671875 -12.8125 L 4.546875 -12.8125 L 4.546875 -9.15625 L 10.625 -9.15625 Z M 10.625 -6.671875 "/></g></g></g><g fill="#004494" fill-opacity="1"><g transform="translate(72.502659, 18.161409)"><g><path d="M 4.546875 -5.421875 L 4.546875 0 L 1.375 0 L 1.375 -15.390625 L 7.375 -15.390625 C 8.53125 -15.390625 9.546875 -15.175781 10.421875 -14.75 C 11.296875 -14.320312 11.96875 -13.71875 12.4375 -12.9375 C 12.914062 -12.164062 13.15625 -11.285156 13.15625 -10.296875 C 13.15625 -8.785156 12.640625 -7.59375 11.609375 -6.71875 C 10.578125 -5.851562 9.148438 -5.421875 7.328125 -5.421875 Z M 4.546875 -7.984375 L 7.375 -7.984375 C 8.21875 -7.984375 8.859375 -8.179688 9.296875 -8.578125 C 9.734375 -8.972656 9.953125 -9.535156 9.953125 -10.265625 C 9.953125 -11.023438 9.726562 -11.632812 9.28125 -12.09375 C 8.84375 -12.5625 8.234375 -12.800781 7.453125 -12.8125 L 4.546875 -12.8125 Z M 4.546875 -7.984375 "/></g></g></g><g fill="#004494" fill-opacity="1"><g transform="translate(86.462634, 18.161409)"><g><path d="M 12.953125 -12.8125 L 8.234375 -12.8125 L 8.234375 0 L 5.078125 0 L 5.078125 -12.8125 L 0.421875 -12.8125 L 0.421875 -15.390625 L 12.953125 -15.390625 Z M 12.953125 -12.8125 "/></g></g></g></g></g><g transform="matrix(1, 0, 0, 1, 328, 181)"><g clip-path="url(#c8fecd0db7)"><g fill="#004494" fill-opacity="1"><g transform="translate(1.510181, 23.409081)"><g><path d="M 8.109375 -3.46875 C 8.109375 -3.882812 7.90625 -4.207031 7.5 -4.4375 C 7.09375 -4.675781 6.4375 -4.890625 5.53125 -5.078125 C 2.539062 -5.703125 1.046875 -6.972656 1.046875 -8.890625 C 1.046875 -10.003906 1.507812 -10.9375 2.4375 -11.6875 C 3.363281 -12.4375 4.570312 -12.8125 6.0625 -12.8125 C 7.664062 -12.8125 8.945312 -12.4375 9.90625 -11.6875 C 10.863281 -10.9375 11.34375 -9.957031 11.34375 -8.75 L 7.96875 -8.75 C 7.96875 -9.226562 7.8125 -9.625 7.5 -9.9375 C 7.195312 -10.257812 6.71875 -10.421875 6.0625 -10.421875 C 5.488281 -10.421875 5.046875 -10.289062 4.734375 -10.03125 C 4.429688 -9.78125 4.28125 -9.457031 4.28125 -9.0625 C 4.28125 -8.6875 4.457031 -8.382812 4.8125 -8.15625 C 5.164062 -7.925781 5.757812 -7.726562 6.59375 -7.5625 C 7.425781 -7.394531 8.128906 -7.207031 8.703125 -7 C 10.484375 -6.34375 11.375 -5.210938 11.375 -3.609375 C 11.375 -2.460938 10.878906 -1.535156 9.890625 -0.828125 C 8.910156 -0.117188 7.640625 0.234375 6.078125 0.234375 C 5.023438 0.234375 4.085938 0.046875 3.265625 -0.328125 C 2.453125 -0.703125 1.8125 -1.21875 1.34375 -1.875 C 0.882812 -2.53125 0.65625 -3.238281 0.65625 -4 L 3.84375 -4 C 3.875 -3.40625 4.09375 -2.945312 4.5 -2.625 C 4.90625 -2.3125 5.457031 -2.15625 6.15625 -2.15625 C 6.789062 -2.15625 7.273438 -2.273438 7.609375 -2.515625 C 7.941406 -2.765625 8.109375 -3.082031 8.109375 -3.46875 Z M 8.109375 -3.46875 "/></g></g></g><g fill="#004494" fill-opacity="1"><g transform="translate(13.746862, 23.409081)"><g><path d="M 1.46875 -1.65625 C 1.46875 -2.1875 1.644531 -2.617188 2 -2.953125 C 2.363281 -3.285156 2.816406 -3.453125 3.359375 -3.453125 C 3.910156 -3.453125 4.363281 -3.285156 4.71875 -2.953125 C 5.082031 -2.617188 5.265625 -2.1875 5.265625 -1.65625 C 5.265625 -1.125 5.085938 -0.691406 4.734375 -0.359375 C 4.378906 -0.0351562 3.921875 0.125 3.359375 0.125 C 2.804688 0.125 2.351562 -0.0351562 2 -0.359375 C 1.644531 -0.691406 1.46875 -1.125 1.46875 -1.65625 Z M 1.46875 -1.65625 "/></g></g></g><g fill="#004494" fill-opacity="1"><g transform="translate(20.661226, 23.409081)"><g><path d="M 8.578125 0 C 8.421875 -0.300781 8.3125 -0.675781 8.25 -1.125 C 7.425781 -0.21875 6.363281 0.234375 5.0625 0.234375 C 3.832031 0.234375 2.8125 -0.117188 2 -0.828125 C 1.195312 -1.546875 0.796875 -2.445312 0.796875 -3.53125 C 0.796875 -4.863281 1.285156 -5.882812 2.265625 -6.59375 C 3.253906 -7.3125 4.6875 -7.675781 6.5625 -7.6875 L 8.109375 -7.6875 L 8.109375 -8.40625 C 8.109375 -8.988281 7.957031 -9.453125 7.65625 -9.796875 C 7.351562 -10.148438 6.882812 -10.328125 6.25 -10.328125 C 5.675781 -10.328125 5.226562 -10.191406 4.90625 -9.921875 C 4.59375 -9.648438 4.4375 -9.273438 4.4375 -8.796875 L 1.0625 -8.796875 C 1.0625 -9.523438 1.285156 -10.195312 1.734375 -10.8125 C 2.191406 -11.4375 2.832031 -11.925781 3.65625 -12.28125 C 4.476562 -12.632812 5.398438 -12.8125 6.421875 -12.8125 C 7.972656 -12.8125 9.203125 -12.421875 10.109375 -11.640625 C 11.015625 -10.859375 11.46875 -9.765625 11.46875 -8.359375 L 11.46875 -2.90625 C 11.476562 -1.707031 11.644531 -0.804688 11.96875 -0.203125 L 11.96875 0 Z M 5.796875 -2.34375 C 6.296875 -2.34375 6.753906 -2.453125 7.171875 -2.671875 C 7.585938 -2.890625 7.898438 -3.1875 8.109375 -3.5625 L 8.109375 -5.71875 L 6.84375 -5.71875 C 5.164062 -5.71875 4.269531 -5.132812 4.15625 -3.96875 L 4.15625 -3.78125 C 4.15625 -3.363281 4.300781 -3.019531 4.59375 -2.75 C 4.882812 -2.476562 5.285156 -2.34375 5.796875 -2.34375 Z M 5.796875 -2.34375 "/></g></g></g><g fill="#004494" fill-opacity="1"><g transform="translate(33.420841, 23.409081)"><g><path d="M 1.46875 -1.65625 C 1.46875 -2.1875 1.644531 -2.617188 2 -2.953125 C 2.363281 -3.285156 2.816406 -3.453125 3.359375 -3.453125 C 3.910156 -3.453125 4.363281 -3.285156 4.71875 -2.953125 C 5.082031 -2.617188 5.265625 -2.1875 5.265625 -1.65625 C 5.265625 -1.125 5.085938 -0.691406 4.734375 -0.359375 C 4.378906 -0.0351562 3.921875 0.125 3.359375 0.125 C 2.804688 0.125 2.351562 -0.0351562 2 -0.359375 C 1.644531 -0.691406 1.46875 -1.125 1.46875 -1.65625 Z M 1.46875 -1.65625 "/></g></g></g></g></g></g></g></svg>